<svg id="Layer_1" data-name="Layer 1" xmlns="http://www.w3.org/2000/svg" viewBox="0 0 526.09 82.2"><defs><style>.cls-1{fill:#3b55a4;}.cls-2{fill:#8b989e;}</style></defs><title>Consultants Factory</title><path class="cls-1" d="M23.09,28.42a10.09,10.09,0,0,1-4.71,1.1,9.88,9.88,0,0,1-4-.82,9.22,9.22,0,0,1-3.21-2.28A10.76,10.76,0,0,1,9,23a12,12,0,0,1-.76-4.35A12.18,12.18,0,0,1,9,14.26a10.69,10.69,0,0,1,2.12-3.48A9.33,9.33,0,0,1,14.33,8.5a9.81,9.81,0,0,1,4-.82,9.58,9.58,0,0,1,4.76,1.18,9.74,9.74,0,0,1,3.5,3.38l5.76-6.1a17,17,0,0,0-6.17-4.58A19.5,19.5,0,0,0,18.34,0a19.5,19.5,0,0,0-7.4,1.37,17,17,0,0,0-9.6,9.74A20.59,20.59,0,0,0,0,18.62a20.36,20.36,0,0,0,1.34,7.49A17.23,17.23,0,0,0,5.14,32,17,17,0,0,0,11,35.83a19.62,19.62,0,0,0,7.41,1.37,19.85,19.85,0,0,0,8-1.54,16.3,16.3,0,0,0,6.12-4.56l-5.86-6A9.27,9.27,0,0,1,23.09,28.42Z"/><path class="cls-1" d="M82.54,5.21a16.94,16.94,0,0,0-5.81-3.84,20.75,20.75,0,0,0-14.83,0,16.75,16.75,0,0,0-5.81,3.84,17.65,17.65,0,0,0-3.79,5.9,20,20,0,0,0-1.37,7.51,19.77,19.77,0,0,0,1.37,7.49A17.66,17.66,0,0,0,56.09,32a16.75,16.75,0,0,0,5.81,3.84,20.75,20.75,0,0,0,14.83,0A16.94,16.94,0,0,0,82.54,32a17.82,17.82,0,0,0,3.79-5.88,20,20,0,0,0,1.37-7.49,20.18,20.18,0,0,0-1.37-7.51A17.81,17.81,0,0,0,82.54,5.21ZM78.67,23a10.57,10.57,0,0,1-2.11,3.45,9.42,9.42,0,0,1-3.19,2.28,10.39,10.39,0,0,1-8.09,0,9.35,9.35,0,0,1-3.22-2.28A10.74,10.74,0,0,1,60,23a12.05,12.05,0,0,1-.77-4.35A12.19,12.19,0,0,1,60,14.26a10.67,10.67,0,0,1,2.11-3.48,9.37,9.37,0,0,1,3.2-2.28,10.44,10.44,0,0,1,8.11,0,9.42,9.42,0,0,1,3.19,2.28,10.5,10.5,0,0,1,2.11,3.48,12.19,12.19,0,0,1,.77,4.36A12.05,12.05,0,0,1,78.67,23Z"/><polygon class="cls-1" points="134.12 23.71 116.78 0.24 109.12 0.24 109.12 36.24 117.12 36.24 117.12 13.39 133.82 36.24 141.12 36.24 141.12 0.24 134.12 0.24 134.12 23.71"/><path class="cls-1" d="M187.37,18.79a11.09,11.09,0,0,0-3-1.82A28.66,28.66,0,0,0,181,15.79c-1.19-.32-2.34-.61-3.46-.89a22.27,22.27,0,0,1-3-.93,6.15,6.15,0,0,1-2.11-1.32,2.76,2.76,0,0,1-.79-2A2.72,2.72,0,0,1,172.08,9a3.58,3.58,0,0,1,1.25-1A5.46,5.46,0,0,1,175,7.34a11.81,11.81,0,0,1,1.76-.14,9.15,9.15,0,0,1,4.12,1,16.56,16.56,0,0,1,4.32,3.44l5-5.76a14.41,14.41,0,0,0-5.8-4.3,20.09,20.09,0,0,0-8-1.56,17.5,17.5,0,0,0-5.33.77A12.11,12.11,0,0,0,167,3a9.65,9.65,0,0,0-2.66,3.5,11,11,0,0,0-.94,4.61,9.64,9.64,0,0,0,.79,4.08A8.28,8.28,0,0,0,166.3,18a11.34,11.34,0,0,0,3,1.84,33.07,33.07,0,0,0,3.4,1.25c1.16.35,2.29.67,3.41,1a22,22,0,0,1,3,1,6.23,6.23,0,0,1,2.11,1.34,2.77,2.77,0,0,1,.8,2,2.71,2.71,0,0,1-.51,1.68,3.56,3.56,0,0,1-1.25,1.06,6,6,0,0,1-1.65.55,10,10,0,0,1-1.78.17,13.18,13.18,0,0,1-5.21-1.18,16.43,16.43,0,0,1-4.9-3.31s0,0,0,0l-4.73,6a16.92,16.92,0,0,0,6.46,4.3,22.63,22.63,0,0,0,8.37,1.56,18.28,18.28,0,0,0,5.57-.79,12.47,12.47,0,0,0,4.27-2.28,10,10,0,0,0,2.74-3.6,11.35,11.35,0,0,0,1-4.75,9.49,9.49,0,0,0-.82-4.16A8.45,8.45,0,0,0,187.37,18.79Z"/><path class="cls-1" d="M233.12,21.65a8.89,8.89,0,0,1-1.94,5.9,6.17,6.17,0,0,1-5,2.21,6.9,6.9,0,0,1-2.93-.62A6.76,6.76,0,0,1,221,27.41a7.51,7.51,0,0,1-1.42-2.69,11.26,11.26,0,0,1-.49-3.46V.24h-8V22.13c0,4.86,1.34,8.63,3.95,11.3s6.32,4,11.09,4,8.52-1.31,11-3.94,3.93-6.41,3.93-11.37V.24h-8Z"/><polygon class="cls-1" points="271.12 0.24 263.12 0.24 263.12 36.24 284.12 36.24 284.12 29.24 271.12 29.24 271.12 0.24"/><polygon class="cls-1" points="301.12 8.24 311.12 8.24 311.12 36.24 319.12 36.24 319.12 8.24 329.12 8.24 329.12 0.24 301.12 0.24 301.12 8.24"/><polygon class="cls-1" points="422.12 23.71 405.21 0.24 397.12 0.24 397.12 36.24 405.12 36.24 405.12 13.39 422.25 36.24 430.12 36.24 430.12 0.24 422.12 0.24 422.12 23.71"/><polygon class="cls-1" points="451.12 8.24 461.12 8.24 461.12 36.24 469.12 36.24 469.12 8.24 479.12 8.24 479.12 0.24 451.12 0.24 451.12 8.24"/><path class="cls-1" d="M525.21,21.62a8.45,8.45,0,0,0-2.13-2.83,11.09,11.09,0,0,0-3-1.82,28.66,28.66,0,0,0-3.41-1.18c-1.19-.32-2.34-.61-3.46-.89a22.27,22.27,0,0,1-3-.93,6.15,6.15,0,0,1-2.11-1.32,2.76,2.76,0,0,1-.79-2A2.72,2.72,0,0,1,507.79,9a3.58,3.58,0,0,1,1.25-1,5.46,5.46,0,0,1,1.65-.56,11.67,11.67,0,0,1,1.75-.14,9.19,9.19,0,0,1,4.13,1,16.72,16.72,0,0,1,4.32,3.44l5-5.76a14.37,14.37,0,0,0-5.81-4.3,20,20,0,0,0-8-1.56,17.46,17.46,0,0,0-5.33.77A12.11,12.11,0,0,0,502.7,3,9.65,9.65,0,0,0,500,6.48a11,11,0,0,0-.94,4.61,9.49,9.49,0,0,0,.79,4.08A8.39,8.39,0,0,0,502,18a11.67,11.67,0,0,0,3,1.84,33.24,33.24,0,0,0,3.41,1.25c1.15.35,2.29.67,3.41,1a22,22,0,0,1,3,1,6.33,6.33,0,0,1,2.11,1.34,2.76,2.76,0,0,1,.79,2,2.7,2.7,0,0,1-.5,1.68A3.65,3.65,0,0,1,516,29.14a6,6,0,0,1-1.65.55,10,10,0,0,1-1.78.17,13.18,13.18,0,0,1-5.21-1.18,16.43,16.43,0,0,1-4.9-3.31s0,0,0,0l-4.73,6a16.92,16.92,0,0,0,6.46,4.3,22.63,22.63,0,0,0,8.37,1.56,18.28,18.28,0,0,0,5.57-.79,12.47,12.47,0,0,0,4.27-2.28,10,10,0,0,0,2.74-3.6,11.35,11.35,0,0,0,1-4.75A9.49,9.49,0,0,0,525.21,21.62Z"/><polygon class="cls-2" points="0.12 81.24 8.12 81.24 8.12 68.24 22.12 68.24 22.12 61.24 8.12 61.24 8.12 53.24 24.12 53.24 24.12 45.24 0.12 45.24 0.12 81.24"/><polygon class="cls-2" points="85.88 45.24 72.25 81.24 80.6 81.24 83.29 74.06 85.78 67.36 90.54 54.43 95.33 67.4 97.83 74.06 100.57 81.24 109.02 81.24 95.24 45.24 85.88 45.24"/><path class="cls-2" d="M182.07,73.42a10.05,10.05,0,0,1-4.7,1.1,9.85,9.85,0,0,1-4-.82,9.35,9.35,0,0,1-3.22-2.28A10.57,10.57,0,0,1,168,68a12.05,12.05,0,0,1-.77-4.35,12.19,12.19,0,0,1,.77-4.36,10.5,10.5,0,0,1,2.11-3.48,9.42,9.42,0,0,1,3.19-2.28,9.85,9.85,0,0,1,4.06-.82,9.54,9.54,0,0,1,4.75,1.18,9.66,9.66,0,0,1,3.5,3.38l5.76-6.1a17,17,0,0,0-6.16-4.58,20.7,20.7,0,0,0-15.29-.19,16.93,16.93,0,0,0-9.6,9.74A20.38,20.38,0,0,0,159,63.62a20.16,20.16,0,0,0,1.35,7.49A16.93,16.93,0,0,0,170,80.83a21,21,0,0,0,15.36-.17,16.3,16.3,0,0,0,6.12-4.56l-5.85-5.95A9.29,9.29,0,0,1,182.07,73.42Z"/><polygon class="cls-2" points="243.12 53.24 253.12 53.24 253.12 81.24 261.12 81.24 261.12 53.24 271.12 53.24 271.12 45.24 243.12 45.24 243.12 53.24"/><path class="cls-2" d="M354.41,50.21a16.8,16.8,0,0,0-5.8-3.84,20.78,20.78,0,0,0-14.84,0,16.8,16.8,0,0,0-5.8,3.84,17.83,17.83,0,0,0-3.8,5.9,20.18,20.18,0,0,0-1.36,7.51,20,20,0,0,0,1.36,7.49A17.84,17.84,0,0,0,328,77a16.8,16.8,0,0,0,5.8,3.84,20.78,20.78,0,0,0,14.84,0,16.8,16.8,0,0,0,5.8-3.84,17.84,17.84,0,0,0,3.8-5.88,20,20,0,0,0,1.36-7.49,20.18,20.18,0,0,0-1.36-7.51A17.83,17.83,0,0,0,354.41,50.21ZM350.55,68a10.74,10.74,0,0,1-2.11,3.45,9.42,9.42,0,0,1-3.19,2.28,10.39,10.39,0,0,1-8.09,0,9.35,9.35,0,0,1-3.22-2.28A10.74,10.74,0,0,1,331.83,68a12.05,12.05,0,0,1-.77-4.35,12.19,12.19,0,0,1,.77-4.36,10.67,10.67,0,0,1,2.11-3.48,9.42,9.42,0,0,1,3.19-2.28,10.46,10.46,0,0,1,8.12,0,9.42,9.42,0,0,1,3.19,2.28,10.67,10.67,0,0,1,2.11,3.48,12.19,12.19,0,0,1,.77,4.36A12.05,12.05,0,0,1,350.55,68Z"/><path class="cls-2" d="M439.81,63.05a12.5,12.5,0,0,0,1.6-6.67,10.52,10.52,0,0,0-1-4.54,9.89,9.89,0,0,0-2.71-3.48,12.42,12.42,0,0,0-4.27-2.21,19.38,19.38,0,0,0-5.64-.77c-2.69,0-5.21,0-7.58.12s-4.13.16-6.13.22V81.24h8v-12h5.28l7.87,12h9.22l-9.84-14A11.63,11.63,0,0,0,439.81,63.05Zm-8.52-1.47a8.5,8.5,0,0,1-5.14,1.66h-4V53.11c1-.06,1.6-.12,2.35-.17s1.46-.07,2.2-.07a8.11,8.11,0,0,1,4.78,1.27,4.23,4.23,0,0,1,1.76,3.56A4.69,4.69,0,0,1,431.29,61.58Z"/><polygon class="cls-2" points="517.25 45.24 509.09 60.79 500.5 45.24 491.57 45.24 505.12 68.76 505.12 81.24 513.12 81.24 513.12 68.76 526.09 45.24 517.25 45.24"/><polygon class="cls-1" points="357.19 0.03 343.56 36.03 351.91 36.03 354.6 28.86 357.1 22.15 361.85 9.22 366.65 22.19 369.14 28.85 371.88 36.03 380.33 36.03 366.55 0.03 357.19 0.03"/></svg>